<svg width="50" height="50" viewBox="0 0 50 50" fill="none" xmlns="http://www.w3.org/2000/svg">
<path d="M29.3634 13C28.0306 13.0922 26.4728 13.9453 25.565 15.0562C24.7369 16.0641 24.0556 17.5609 24.3212 19.0156C25.7775 19.0609 27.2822 18.1875 28.154 17.0578C28.9697 16.0062 29.5868 14.5187 29.3634 13Z" fill="black"/>
<path d="M34.6306 21.3872C33.3509 19.7826 31.5525 18.8513 29.854 18.8513C27.6119 18.8513 26.6634 19.9248 25.1056 19.9248C23.4994 19.9248 22.2791 18.8544 20.34 18.8544C18.4353 18.8544 16.4072 20.0185 15.1213 22.0091C13.3135 24.8122 13.6229 30.0825 16.5525 34.5716C17.601 36.1778 19.001 37.9841 20.8322 37.9997C22.4619 38.0153 22.9213 36.9544 25.1291 36.9434C27.3369 36.9309 27.7556 38.0138 29.3822 37.9966C31.215 37.9825 32.6915 35.9809 33.74 34.3747C34.4915 33.2231 34.7712 32.6435 35.354 31.3435C31.115 29.7294 30.4353 23.7013 34.6306 21.3872Z" fill="black"/>
</svg>
