<svg width="50" height="50" viewBox="0 0 50 50" fill="none" xmlns="http://www.w3.org/2000/svg">
<path d="M33.875 13H15.125C13.4016 13 12 14.4016 12 16.125V34.875C12 36.5984 13.4016 38 15.125 38H33.875C35.5984 38 37 36.5984 37 34.875V16.125C37 14.4016 35.5984 13 33.875 13Z" fill="#1976D2"/>
<path d="M33.0938 25.5H29.1875V22.375C29.1875 21.5125 29.8875 21.5938 30.75 21.5938H32.3125V17.6875H29.1875C26.5984 17.6875 24.5 19.7859 24.5 22.375V25.5H21.375V29.4062H24.5V38H29.1875V29.4062H31.5312L33.0938 25.5Z" fill="#FAFAFA"/>
</svg>
