<svg width="50" height="50" viewBox="0 0 50 50" fill="none" xmlns="http://www.w3.org/2000/svg">
<path d="M17.5405 27.1078L16.6703 30.3565L13.4897 30.4238C12.5392 28.6607 12 26.6436 12 24.5C12 22.4272 12.5041 20.4725 13.3977 18.7514H13.3983L16.23 19.2705L17.4704 22.0852C17.2108 22.8421 17.0693 23.6546 17.0693 24.5C17.0694 25.4176 17.2356 26.2968 17.5405 27.1078Z" fill="#FBBB00"/>
<path d="M36.7816 22.1648C36.9252 22.9209 37 23.7019 37 24.5C37 25.3949 36.9059 26.2678 36.7267 27.1099C36.1182 29.9752 34.5282 32.4773 32.3256 34.2479L32.3249 34.2472L28.7583 34.0652L28.2535 30.9141C29.715 30.057 30.8572 28.7156 31.4589 27.1099H24.7748V22.1648H31.5564H36.7816Z" fill="#518EF8"/>
<path d="M32.3249 34.2474L32.3256 34.2481C30.1834 35.9699 27.4622 37.0002 24.5 37.0002C19.7397 37.0002 15.601 34.3395 13.4897 30.424L17.5405 27.108C18.5962 29.9253 21.3139 31.9308 24.5 31.9308C25.8695 31.9308 27.1525 31.5606 28.2534 30.9143L32.3249 34.2474Z" fill="#28B446"/>
<path d="M32.4788 14.8777L28.4293 18.193C27.2899 17.4808 25.943 17.0693 24.5 17.0693C21.2418 17.0693 18.4732 19.1668 17.4705 22.0852L13.3984 18.7514H13.3977C15.4781 14.7404 19.669 12 24.5 12C27.533 12 30.3139 13.0804 32.4788 14.8777Z" fill="#F14336"/>
</svg>
