<svg width="50" height="50" viewBox="0 0 50 50" fill="none" xmlns="http://www.w3.org/2000/svg">
<rect x="17" y="17" width="18" height="18" fill="white"/>
<path d="M34.7385 13H14.2615C13.0125 13 12 14.0125 12 15.2615V35.7385C12 36.9875 13.0125 38 14.2615 38H34.7385C35.9875 38 37 36.9875 37 35.7385V15.2615C37 14.0125 35.9875 13 34.7385 13ZM19.7361 34.5866C19.7361 34.9501 19.4414 35.2448 19.0779 35.2448H16.2765C15.913 35.2448 15.6184 34.9501 15.6184 34.5866V22.8431C15.6184 22.4796 15.913 22.185 16.2765 22.185H19.0779C19.4414 22.185 19.7361 22.4796 19.7361 22.8431V34.5866ZM17.6772 21.078C16.2074 21.078 15.0158 19.8865 15.0158 18.4166C15.0158 16.9468 16.2074 15.7552 17.6772 15.7552C19.1471 15.7552 20.3386 16.9468 20.3386 18.4166C20.3386 19.8865 19.1471 21.078 17.6772 21.078ZM34.3763 34.6397C34.3763 34.9738 34.1054 35.2448 33.7712 35.2448H30.7651C30.4309 35.2448 30.1599 34.9738 30.1599 34.6397V29.1313C30.1599 28.3096 30.401 25.5304 28.0125 25.5304C26.1598 25.5304 25.784 27.4327 25.7086 28.2863V34.6397C25.7086 34.9738 25.4377 35.2448 25.1035 35.2448H22.196C21.8618 35.2448 21.5909 34.9738 21.5909 34.6397V22.7901C21.5909 22.456 21.8618 22.185 22.196 22.185H25.1035C25.4376 22.185 25.7086 22.456 25.7086 22.7901V23.8147C26.3955 22.7837 27.4165 21.988 29.5902 21.988C34.4039 21.988 34.3763 26.4851 34.3763 28.956V34.6397Z" fill="#0077B7"/>
</svg>
