<svg width="178" height="66" viewBox="0 0 178 66" fill="none" xmlns="http://www.w3.org/2000/svg">
<path d="M10.6475 32.6924H8.1084V44.1914C8.1084 45.7051 7.77474 46.82 7.10742 47.5361C6.4401 48.2523 5.56934 48.6104 4.49512 48.6104C3.33952 48.6104 2.44434 48.236 1.80957 47.4873C1.1748 46.7386 0.857422 45.64 0.857422 44.1914V16.6523C0.857422 15.0898 1.20736 13.9587 1.90723 13.2588C2.6071 12.5589 3.73828 12.209 5.30078 12.209H17.0928C18.7204 12.209 20.112 12.2822 21.2676 12.4287C22.4232 12.5589 23.4648 12.8356 24.3926 13.2588C25.5156 13.7308 26.5085 14.4062 27.3711 15.2852C28.2337 16.1641 28.8848 17.1895 29.3242 18.3613C29.7799 19.5169 30.0078 20.7458 30.0078 22.0479C30.0078 24.7171 29.251 26.8493 27.7373 28.4443C26.2399 30.0394 23.9613 31.1706 20.9014 31.8379C22.1872 32.5215 23.416 33.5306 24.5879 34.8652C25.7598 36.1999 26.8014 37.624 27.7129 39.1377C28.6406 40.6351 29.3568 41.9941 29.8613 43.2148C30.3822 44.4193 30.6426 45.2493 30.6426 45.7051C30.6426 46.1771 30.488 46.6491 30.1787 47.1211C29.8857 47.5768 29.4788 47.9349 28.958 48.1953C28.4372 48.472 27.835 48.6104 27.1514 48.6104C26.3376 48.6104 25.654 48.415 25.1006 48.0244C24.5472 47.6501 24.0671 47.1699 23.6602 46.584C23.2695 45.998 22.7324 45.1354 22.0488 43.9961L19.1436 39.1621C18.1019 37.388 17.166 36.0371 16.3359 35.1094C15.5221 34.1816 14.6921 33.5469 13.8457 33.2051C12.9993 32.8633 11.9333 32.6924 10.6475 32.6924ZM14.7979 17.6533H8.1084V27.4922H14.6025C16.3441 27.4922 17.8089 27.3457 18.9971 27.0527C20.1852 26.7435 21.0885 26.2308 21.707 25.5146C22.3418 24.7822 22.6592 23.7812 22.6592 22.5117C22.6592 21.5189 22.4069 20.6481 21.9023 19.8994C21.3978 19.1344 20.6979 18.5648 19.8027 18.1904C18.9564 17.8324 17.2881 17.6533 14.7979 17.6533Z" fill="#6426E8"/>
<path d="M36.9658 22.4629V5.25098C36.9658 3.78613 37.2913 2.6875 37.9424 1.95508C38.6097 1.22266 39.4805 0.856445 40.5547 0.856445C41.6777 0.856445 42.5648 1.22266 43.2158 1.95508C43.8831 2.6875 44.2168 3.78613 44.2168 5.25098V22.8535C44.2168 24.8555 44.4365 26.5319 44.876 27.8828C45.3317 29.2174 46.1292 30.2591 47.2686 31.0078C48.4079 31.7402 50.0029 32.1064 52.0537 32.1064C54.8857 32.1064 56.8877 31.3577 58.0596 29.8604C59.2314 28.3467 59.8174 26.0599 59.8174 23V5.25098C59.8174 3.76986 60.1429 2.67122 60.7939 1.95508C61.445 1.22266 62.3158 0.856445 63.4062 0.856445C64.4967 0.856445 65.3756 1.22266 66.043 1.95508C66.7266 2.67122 67.0684 3.76986 67.0684 5.25098V22.4629C67.0684 25.2624 66.7917 27.598 66.2383 29.4697C65.7012 31.3415 64.6758 32.9854 63.1621 34.4014C61.86 35.6058 60.3464 36.4847 58.6211 37.0381C56.8958 37.5915 54.8776 37.8682 52.5664 37.8682C49.8158 37.8682 47.4476 37.5752 45.4619 36.9893C43.4762 36.387 41.8568 35.4674 40.6035 34.2305C39.3503 32.9772 38.4307 31.3822 37.8447 29.4453C37.2588 27.4922 36.9658 25.1647 36.9658 22.4629Z" fill="#FFD600"/>
<path d="M79.2266 16.2373H88.6748C91.1325 16.2373 93.2402 16.4652 94.998 16.9209C96.7559 17.3766 98.3509 18.2311 99.7832 19.4844C103.51 22.6745 105.374 27.5247 105.374 34.0352C105.374 36.1836 105.187 38.1449 104.812 39.9189C104.438 41.693 103.86 43.2962 103.079 44.7285C102.298 46.1445 101.297 47.4141 100.076 48.5371C99.1159 49.3997 98.0661 50.0915 96.9268 50.6123C95.7874 51.1331 94.5586 51.4993 93.2402 51.7109C91.9381 51.9225 90.4652 52.0283 88.8213 52.0283H79.373C78.0547 52.0283 77.0619 51.8249 76.3945 51.418C75.7272 51.0273 75.2878 50.4658 75.0762 49.7334C74.8809 49.0173 74.7832 48.0814 74.7832 46.9258V20.6807C74.7832 19.1182 75.1331 17.987 75.833 17.2871C76.5329 16.5872 77.6641 16.2373 79.2266 16.2373ZM82.0342 21.9746V46.2666H87.5273C88.7318 46.2666 89.6758 46.2341 90.3594 46.1689C91.043 46.1038 91.751 45.9411 92.4834 45.6807C93.2158 45.4202 93.8506 45.054 94.3877 44.582C96.8128 42.5312 98.0254 38.9993 98.0254 33.9863C98.0254 30.4544 97.4883 27.8096 96.4141 26.0518C95.3561 24.2939 94.0459 23.179 92.4834 22.707C90.9209 22.2188 89.0329 21.9746 86.8193 21.9746H82.0342Z" fill="#6426E8"/>
<path d="M116.238 16.2373H125.687C128.144 16.2373 130.252 16.4652 132.01 16.9209C133.768 17.3766 135.363 18.2311 136.795 19.4844C140.522 22.6745 142.386 27.5247 142.386 34.0352C142.386 36.1836 142.199 38.1449 141.824 39.9189C141.45 41.693 140.872 43.2962 140.091 44.7285C139.31 46.1445 138.309 47.4141 137.088 48.5371C136.128 49.3997 135.078 50.0915 133.938 50.6123C132.799 51.1331 131.57 51.4993 130.252 51.7109C128.95 51.9225 127.477 52.0283 125.833 52.0283H116.385C115.066 52.0283 114.074 51.8249 113.406 51.418C112.739 51.0273 112.299 50.4658 112.088 49.7334C111.893 49.0173 111.795 48.0814 111.795 46.9258V20.6807C111.795 19.1182 112.145 17.987 112.845 17.2871C113.545 16.5872 114.676 16.2373 116.238 16.2373ZM119.046 21.9746V46.2666H124.539C125.743 46.2666 126.688 46.2341 127.371 46.1689C128.055 46.1038 128.763 45.9411 129.495 45.6807C130.228 45.4202 130.862 45.054 131.399 44.582C133.825 42.5312 135.037 38.9993 135.037 33.9863C135.037 30.4544 134.5 27.8096 133.426 26.0518C132.368 24.2939 131.058 23.179 129.495 22.707C127.933 22.2188 126.045 21.9746 123.831 21.9746H119.046Z" fill="#6426E8"/>
<path d="M155.13 41.1152V29.7627L146.39 16.2129C145.625 14.9922 145.079 14.04 144.754 13.3564C144.445 12.6729 144.29 12.0788 144.29 11.5742C144.29 10.7441 144.607 10.028 145.242 9.42578C145.893 8.82357 146.691 8.52246 147.635 8.52246C148.628 8.52246 149.376 8.80729 149.881 9.37695C150.402 9.93034 151.175 11.0452 152.2 12.7217L158.89 23.5859L165.652 12.7217C166.059 12.0544 166.401 11.4928 166.678 11.0371C166.954 10.5814 167.256 10.1582 167.581 9.76758C167.923 9.36068 168.297 9.05143 168.704 8.83984C169.111 8.62826 169.607 8.52246 170.193 8.52246C171.105 8.52246 171.862 8.82357 172.464 9.42578C173.082 10.0117 173.392 10.6953 173.392 11.4766C173.392 12.1113 173.237 12.7461 172.928 13.3809C172.618 14.0156 172.09 14.8945 171.341 16.0176L162.381 29.7627V41.1152C162.381 42.5964 162.039 43.7031 161.355 44.4355C160.672 45.168 159.801 45.5342 158.743 45.5342C157.669 45.5342 156.798 45.1761 156.131 44.46C155.464 43.7275 155.13 42.6126 155.13 41.1152Z" fill="#6426E8"/>
<rect x="110" y="61" width="68" height="5" rx="2.5" fill="#FFD600"/>
</svg>
